<?xml version="1.0" encoding="UTF-8"?>
<svg width="1200pt" height="1200pt" version="1.1" viewBox="0 0 1200 1200" xmlns="http://www.w3.org/2000/svg">
 <g>
  <path d="m942.67 373.67c0-188.95-153.73-342.68-342.68-342.68-188.95 0.003906-342.67 153.73-342.67 342.68 0 168.13 121.75 308.27 281.69 337.13v149.67h-148.5v121.96l148.5 0.003906v186.56h121.96v-186.56h148.51v-121.96h-148.51v-149.67c159.94-28.867 281.7-169 281.7-337.13zm-563.38 0c0-121.7 99.004-220.71 220.71-220.71 121.7 0 220.71 99.012 220.71 220.71-0.003907 121.7-99.012 220.71-220.71 220.71-121.7 0-220.7-99.008-220.7-220.71z"/>
  <path d="m676.57 412.51c0-72.707-76.578-153.39-76.578-153.39s-76.578 85.074-76.578 153.39c0 42.293 34.285 76.578 76.578 76.578 42.293 0 76.578-34.285 76.578-76.578z"/>
 </g>
</svg>
